<svg width="64" height="64" viewBox="0 0 64 64" fill="none" xmlns="http://www.w3.org/2000/svg" xmlns:xlink="http://www.w3.org/1999/xlink">
<path d="M13.288,19.192C16.51,19.192 19.123,16.58 19.123,13.357C19.123,10.135 16.51,7.523 13.288,7.523C10.066,7.523 7.453,10.135 7.453,13.357C7.453,16.58 10.066,19.192 13.288,19.192Z" fill="#D3E97A"/>
<path d="M24.632,23.613L24.632,55.984L34.683,55.984L34.683,39.976C34.683,35.752 35.477,31.661 40.715,31.661C45.88,31.661 45.944,36.491 45.944,40.243L45.944,55.987L56,55.987L56,38.235C56,29.515 54.123,22.813 43.931,22.813C39.037,22.813 35.757,25.499 34.416,28.04L34.28,28.04L34.28,23.613L24.632,23.613ZM8.253,23.613L18.32,23.613L18.32,55.984L8.253,55.984L8.253,23.613Z" fill="#D3E97A"/>
</svg>
