<svg width="48" height="48" viewBox="0 0 48 48" fill="none" xmlns="http://www.w3.org/2000/svg" xmlns:xlink="http://www.w3.org/1999/xlink">
<path d="M9.966,14.394C12.383,14.394 14.342,12.435 14.342,10.018C14.342,7.601 12.383,5.642 9.966,5.642C7.549,5.642 5.59,7.601 5.59,10.018C5.59,12.435 7.549,14.394 9.966,14.394Z" fill="#D3E97A"/>
<path d="M18.474,17.71L18.474,41.988L26.012,41.988L26.012,29.982C26.012,26.814 26.608,23.746 30.536,23.746C34.41,23.746 34.458,27.368 34.458,30.182L34.458,41.99L42,41.99L42,28.676C42,22.136 40.592,17.11 32.948,17.11C29.278,17.11 26.818,19.124 25.812,21.03L25.71,21.03L25.71,17.71L18.474,17.71ZM6.19,17.71L13.74,17.71L13.74,41.988L6.19,41.988L6.19,17.71Z" fill="#D3E97A"/>
</svg>
