<svg width="52" height="52" viewBox="0 0 52 52" fill="none" xmlns="http://www.w3.org/2000/svg" xmlns:xlink="http://www.w3.org/1999/xlink">
<path d="M10.796,15.594C13.415,15.594 15.537,13.471 15.537,10.853C15.537,8.235 13.415,6.112 10.796,6.112C8.178,6.112 6.056,8.235 6.056,10.853C6.056,13.471 8.178,15.594 10.796,15.594Z" fill="#D3E97A"/>
<path d="M20.014,19.186L20.014,45.487L28.18,45.487L28.18,32.48C28.18,29.048 28.825,25.725 33.081,25.725C37.278,25.725 37.33,29.648 37.33,32.697L37.33,45.489L45.5,45.489L45.5,31.065C45.5,23.98 43.975,18.536 35.694,18.536C31.718,18.536 29.053,20.717 27.963,22.782L27.853,22.782L27.853,19.186L20.014,19.186ZM6.706,19.186L14.885,19.186L14.885,45.487L6.706,45.487L6.706,19.186Z" fill="#D3E97A"/>
</svg>
