<svg width="64" height="64" viewBox="0 0 64 64" fill="none" xmlns="http://www.w3.org/2000/svg" xmlns:xlink="http://www.w3.org/1999/xlink">
<path d="M31.997,19.672C28.727,19.672 25.591,20.971 23.278,23.284C20.966,25.596 19.667,28.732 19.667,32.003C19.667,35.273 20.966,38.409 23.278,40.722C25.591,43.034 28.727,44.334 31.997,44.334C35.267,44.334 38.404,43.034 40.716,40.722C43.029,38.409 44.328,35.273 44.328,32.003C44.328,28.732 43.029,25.596 40.716,23.284C38.404,20.971 35.267,19.672 31.997,19.672ZM31.997,40.011C29.873,40.011 27.835,39.167 26.333,37.665C24.83,36.162 23.987,34.125 23.987,32C23.987,29.876 24.83,27.838 26.333,26.336C27.835,24.833 29.873,23.989 31.997,23.989C34.122,23.989 36.159,24.833 37.662,26.336C39.164,27.838 40.008,29.876 40.008,32C40.008,34.125 39.164,36.162 37.662,37.665C36.159,39.167 34.122,40.011 31.997,40.011Z" fill="#D3E97A"/>
<path d="M44.816,22.093C46.404,22.093 47.691,20.806 47.691,19.219C47.691,17.631 46.404,16.344 44.816,16.344C43.228,16.344 41.941,17.631 41.941,19.219C41.941,20.806 43.228,22.093 44.816,22.093Z" fill="#D3E97A"/>
<path d="M54.755,16.296C54.137,14.702 53.194,13.254 51.985,12.046C50.776,10.837 49.328,9.894 47.733,9.277C45.868,8.577 43.897,8.198 41.904,8.157C39.336,8.045 38.523,8.013 32.011,8.013C25.499,8.013 24.664,8.013 22.117,8.157C20.126,8.196 18.157,8.575 16.293,9.277C14.699,9.893 13.25,10.836 12.041,12.045C10.832,13.253 9.889,14.701 9.272,16.296C8.572,18.162 8.194,20.133 8.155,22.125C8.04,24.691 8.005,25.504 8.005,32.019C8.005,38.531 8.005,39.36 8.155,41.912C8.195,43.907 8.571,45.875 9.272,47.744C9.89,49.338 10.834,50.786 12.044,51.994C13.253,53.203 14.702,54.146 16.296,54.763C18.156,55.491 20.126,55.897 22.123,55.963C24.691,56.075 25.504,56.109 32.016,56.109C38.528,56.109 39.363,56.109 41.909,55.963C43.902,55.922 45.873,55.544 47.739,54.845C49.333,54.227 50.78,53.284 51.989,52.075C53.198,50.866 54.142,49.418 54.76,47.824C55.461,45.957 55.837,43.989 55.877,41.995C55.992,39.429 56.027,38.616 56.027,32.101C56.027,25.587 56.027,24.76 55.877,22.208C55.846,20.187 55.467,18.187 54.755,16.296ZM51.507,41.715C51.49,43.252 51.209,44.774 50.677,46.216C50.277,47.253 49.664,48.195 48.878,48.981C48.091,49.766 47.149,50.379 46.112,50.779C44.686,51.308 43.18,51.588 41.659,51.608C39.125,51.725 38.411,51.755 31.915,51.755C25.413,51.755 24.749,51.755 22.168,51.608C20.648,51.589 19.142,51.309 17.717,50.779C16.677,50.381 15.731,49.77 14.941,48.984C14.151,48.198 13.536,47.255 13.133,46.216C12.609,44.79 12.329,43.285 12.304,41.765C12.189,39.232 12.163,38.517 12.163,32.021C12.163,25.523 12.163,24.859 12.304,22.275C12.321,20.739 12.602,19.217 13.133,17.776C13.947,15.672 15.613,14.016 17.717,13.211C19.143,12.683 20.648,12.403 22.168,12.381C24.704,12.267 25.416,12.235 31.915,12.235C38.413,12.235 39.08,12.235 41.659,12.381C43.18,12.4 44.686,12.68 46.112,13.211C47.149,13.611 48.091,14.225 48.877,15.011C49.664,15.797 50.277,16.739 50.677,17.776C51.202,19.203 51.482,20.707 51.507,22.227C51.621,24.763 51.651,25.475 51.651,31.973C51.651,38.469 51.651,39.168 51.536,41.717L51.507,41.717L51.507,41.715Z" fill="#D3E97A"/>
</svg>
