<svg width="54" height="52" viewBox="0 0 54 52" fill="none" xmlns="http://www.w3.org/2000/svg" xmlns:xlink="http://www.w3.org/1999/xlink">
<path d="M26.07,-0.667C11.379,-0.667 -0.528,11.24 -0.528,25.931C-0.528,37.68 7.091,47.651 17.662,51.171C18.992,51.411 19.472,50.592 19.472,49.888C19.472,49.256 19.451,47.581 19.443,45.365C12.043,46.971 10.48,41.797 10.48,41.797C9.275,38.725 7.528,37.907 7.528,37.907C5.115,36.256 7.712,36.293 7.712,36.293C10.384,36.48 11.784,39.035 11.784,39.035C14.158,43.099 18.014,41.925 19.523,41.245C19.766,39.525 20.459,38.352 21.216,37.688C15.312,37.019 9.104,34.736 9.104,24.541C9.104,21.643 10.142,19.264 11.835,17.408C11.566,16.733 10.646,14.027 12.099,10.368C12.099,10.368 14.331,9.651 19.411,13.091C21.58,12.5 23.818,12.199 26.067,12.195C28.315,12.198 30.553,12.5 32.723,13.091C37.806,9.648 40.035,10.368 40.035,10.368C41.488,14.027 40.576,16.733 40.299,17.408C42.006,19.264 43.03,21.64 43.03,24.541C43.03,34.763 36.816,37.008 30.891,37.667C31.838,38.488 32.691,40.109 32.691,42.589C32.691,46.147 32.659,49.016 32.659,49.888C32.659,50.6 33.134,51.427 34.491,51.165C45.056,47.64 52.667,37.677 52.667,25.931C52.667,11.24 40.76,-0.667 26.07,-0.667Z" clip-rule="evenodd" fill-rule="evenodd" fill="#D3E97A"/>
</svg>
