<svg width="38" height="36" viewBox="0 0 38 36" fill="none" xmlns="http://www.w3.org/2000/svg" xmlns:xlink="http://www.w3.org/1999/xlink">
<path d="M18.048,-0.333C7.948,-0.333 -0.238,7.853 -0.238,17.952C-0.238,26.03 5,32.885 12.267,35.305C13.182,35.47 13.512,34.907 13.512,34.423C13.512,33.989 13.497,32.837 13.492,31.314C8.404,32.417 7.33,28.861 7.33,28.861C6.501,26.749 5.3,26.186 5.3,26.186C3.641,25.051 5.427,25.077 5.427,25.077C7.264,25.205 8.226,26.961 8.226,26.961C9.858,29.755 12.509,28.949 13.547,28.481C13.714,27.299 14.19,26.492 14.711,26.036C10.652,25.575 6.384,24.006 6.384,16.997C6.384,15.004 7.097,13.369 8.261,12.093C8.076,11.629 7.444,9.768 8.443,7.253C8.443,7.253 9.977,6.76 13.47,9.125C14.961,8.719 16.5,8.512 18.046,8.509C19.592,8.511 21.13,8.719 22.622,9.125C26.116,6.758 27.649,7.253 27.649,7.253C28.648,9.768 28.021,11.629 27.83,12.093C29.004,13.369 29.708,15.003 29.708,16.997C29.708,24.024 25.436,25.568 21.362,26.021C22.013,26.586 22.6,27.7 22.6,29.405C22.6,31.851 22.578,33.824 22.578,34.423C22.578,34.913 22.904,35.481 23.837,35.301C31.101,32.878 36.333,26.028 36.333,17.952C36.333,7.853 28.147,-0.333 18.048,-0.333Z" clip-rule="evenodd" fill-rule="evenodd" fill="#D3E97A"/>
</svg>
