<svg width="40" height="40" viewBox="0 0 40 40" fill="none" xmlns="http://www.w3.org/2000/svg" xmlns:xlink="http://www.w3.org/1999/xlink">
<path d="M20.052,0C9.034,0 0.104,8.93 0.104,19.948C0.104,28.76 5.818,36.238 13.746,38.878C14.744,39.058 15.104,38.444 15.104,37.916C15.104,37.442 15.088,36.186 15.082,34.524C9.532,35.728 8.36,31.848 8.36,31.848C7.456,29.544 6.146,28.93 6.146,28.93C4.336,27.692 6.284,27.72 6.284,27.72C8.288,27.86 9.338,29.776 9.338,29.776C11.118,32.824 14.01,31.944 15.142,31.434C15.324,30.144 15.844,29.264 16.412,28.766C11.984,28.264 7.328,26.552 7.328,18.906C7.328,16.732 8.106,14.948 9.376,13.556C9.174,13.05 8.484,11.02 9.574,8.276C9.574,8.276 11.248,7.738 15.058,10.318C16.685,9.875 18.364,9.649 20.05,9.646C21.736,9.649 23.415,9.875 25.042,10.318C28.854,7.736 30.526,8.276 30.526,8.276C31.616,11.02 30.932,13.05 30.724,13.556C32.004,14.948 32.772,16.73 32.772,18.906C32.772,26.572 28.112,28.256 23.668,28.75C24.378,29.366 25.018,30.582 25.018,32.442C25.018,35.11 24.994,37.262 24.994,37.916C24.994,38.45 25.35,39.07 26.368,38.874C34.292,36.23 40,28.758 40,19.948C40,8.93 31.07,0 20.052,0Z" clip-rule="evenodd" fill-rule="evenodd" fill="#D3E97A"/>
</svg>
