<svg width="44" height="44" viewBox="0 0 44 44" fill="none" xmlns="http://www.w3.org/2000/svg" xmlns:xlink="http://www.w3.org/1999/xlink">
<path d="M22.056,0.333C10.12,0.333 0.446,10.008 0.446,21.944C0.446,31.49 6.636,39.591 15.225,42.451C16.306,42.646 16.696,41.981 16.696,41.409C16.696,40.896 16.679,39.535 16.672,37.734C10.66,39.039 9.39,34.835 9.39,34.835C8.411,32.339 6.992,31.674 6.992,31.674C5.031,30.333 7.141,30.363 7.141,30.363C9.312,30.515 10.45,32.591 10.45,32.591C12.378,35.893 15.511,34.939 16.737,34.387C16.934,32.989 17.498,32.036 18.113,31.497C13.316,30.953 8.272,29.098 8.272,20.815C8.272,18.46 9.115,16.527 10.491,15.019C10.272,14.471 9.524,12.272 10.705,9.299C10.705,9.299 12.519,8.716 16.646,11.511C18.409,11.032 20.227,10.787 22.054,10.783C23.881,10.786 25.7,11.031 27.462,11.511C31.592,8.714 33.403,9.299 33.403,9.299C34.584,12.272 33.843,14.471 33.618,15.019C35.004,16.527 35.836,18.458 35.836,20.815C35.836,29.12 30.788,30.944 25.974,31.479C26.743,32.147 27.436,33.464 27.436,35.479C27.436,38.369 27.41,40.701 27.41,41.409C27.41,41.988 27.796,42.659 28.899,42.447C37.483,39.583 43.667,31.488 43.667,21.944C43.667,10.008 33.993,0.333 22.056,0.333Z" clip-rule="evenodd" fill-rule="evenodd" fill="#D3E97A"/>
</svg>
